<svg xmlns="http://www.w3.org/2000/svg" width="32" height="32" fill="none" viewBox="0 0 32 32"><path fill="#332c22" d="m16.281 19.456-.085-.166c-.323-.62-1.101-1.023-1.792-.927-.594.081-1.088.575-1.262 1.271-.187.751-.052 1.475.219 2.179.44 1.148 1.138 2.13 1.997 2.998.595.601 1.069.591 1.654-.02.812-.849 1.471-1.802 1.928-2.888.27-.64.469-1.299.499-1.999.021-.505-.044-.992-.331-1.426-.366-.55-.967-.713-1.558-.422-.367.18-.658.45-.887.786-.131.192-.246.395-.382.614m11.44 3.227a5.9 5.9 0 0 1-.663 2.686c-.74 1.422-1.81 2.523-3.242 3.262-1.412.728-2.86.811-4.338.232-.6-.236-1.198-.479-1.783-.748-1.064-.49-2.122-.486-3.21-.079-.763.286-1.538.547-2.321.773a6.3 6.3 0 0 1-2.493.224c-.731-.083-1.35-.407-1.885-.897-.682-.626-1.229-1.356-1.574-2.217-.442-1.103-.335-2.168.308-3.173.504-.788 1.184-1.416 1.843-2.065.478-.473.947-.958 1.389-1.465.508-.586.812-1.292 1.064-2.018.234-.674.447-1.355.677-2.03.167-.487.473-.892.775-1.303.728-.99 1.766-1.422 2.913-1.677 1.359-.302 2.543.087 3.554.981.621.55 1.16 1.194 1.738 1.793.986 1.02 2.032 1.973 3.204 2.778.583.4 1.195.76 1.773 1.167.828.582 1.526 1.289 1.952 2.227.223.491.311 1.012.319 1.55M14.377 8.65c.003.757-.132 1.575-.49 2.344-.385.822-.94 1.472-1.855 1.725-.752.208-1.446.04-2.094-.364-.851-.532-1.427-1.303-1.856-2.191a7.66 7.66 0 0 1-.734-4.078c.075-.842.313-1.63.784-2.345.811-1.234 2.269-1.583 3.537-.832.822.487 1.399 1.199 1.837 2.03.597 1.132.881 2.344.871 3.71M23.231 6.392c.002 1.544-.283 2.839-.986 4.024-.392.663-.894 1.227-1.589 1.59-1.014.53-2.132.336-2.928-.494-.631-.656-.973-1.455-1.157-2.33-.316-1.512-.153-2.989.383-4.425.259-.696.637-1.332 1.181-1.845.502-.473 1.073-.844 1.785-.903.905-.075 1.616.309 2.185.987.586.7.878 1.529 1.023 2.414.063.381.082.77.103.982M2 13.834c.013-.69.144-1.338.554-1.9.536-.735 1.286-1.006 2.171-.95.897.055 1.66.443 2.345.989 1.22.973 2.028 2.215 2.349 3.752.142.68.152 1.367-.085 2.03-.41 1.138-1.342 1.726-2.558 1.632-.757-.059-1.423-.361-2.033-.792-1.317-.928-2.165-2.19-2.595-3.732-.092-.331-.1-.686-.148-1.03M29.707 11.683c-.204 2.141-1.075 3.797-2.764 4.989q-.707.495-1.574.581c-.974.099-1.86-.45-2.227-1.389-.322-.825-.303-1.67-.1-2.51.39-1.617 1.259-2.924 2.625-3.882a3 3 0 0 1 2.03-.535c.857.071 1.582.715 1.833 1.661.101.383.13.785.177 1.085"/></svg>