<svg xmlns="http://www.w3.org/2000/svg" style="display:none">
<symbol id="icon-add" viewBox="0 0 24 24">
<path fill="#02060a" d="M11.148 12.852H5.702a.82.82 0 0 1-.606-.247.83.83 0 0 1-.245-.61q0-.362.245-.604a.83.83 0 0 1 .606-.243h5.446V5.702q0-.36.247-.608a.82.82 0 0 1 .61-.25.8.8 0 0 1 .604.25.84.84 0 0 1 .243.608v5.446h5.446a.83.83 0 0 1 .609.247.82.82 0 0 1 .249.61.8.8 0 0 1-.25.604.84.84 0 0 1-.608.243h-5.446v5.446a.82.82 0 0 1-.247.606.83.83 0 0 1-.61.245.82.82 0 0 1-.604-.245.83.83 0 0 1-.243-.606z"/>
</symbol>
<symbol id="icon-facebook" viewBox="0 0 24 24">
<path fill="#02060a" d="M22 12.304c0-5.557-4.477-10.061-10-10.061S2 6.747 2 12.303c0 5.023 3.657 9.185 8.438 9.94v-7.03h-2.54v-2.91h2.54v-2.216c0-2.521 1.492-3.914 3.777-3.914 1.094 0 2.238.196 2.238.196v2.476h-1.26c-1.243 0-1.63.776-1.63 1.572v1.887h2.773l-.443 2.908h-2.33v7.03c4.78-.754 8.437-4.916 8.437-9.938"/>
</symbol>
<symbol id="icon-star-outline" viewBox="0 0 24 24">
<path stroke="#02060a" stroke-width="2" d="m12.008 4.001 2.028 4.818a2.01 2.01 0 0 0 1.691 1.218l5.258.416-3.996 3.382a1.99 1.99 0 0 0-.65 1.984l1.223 5.066q-.003 0-.004.003l-.008-.004-4.509-2.72a2.02 2.02 0 0 0-2.082 0l-4.509 2.72-.008.004-.005-.003 1.224-5.066a1.99 1.99 0 0 0-.546-1.89l-.103-.094-3.998-3.382 5.258-.416A2 2 0 0 0 9.964 8.82l2.027-4.818L12 4z"/>
</symbol>
<symbol id="icon-alternate-true" viewBox="0 0 84 36">
<path fill="#f6f4f1" d="m14.781 21.335-.085-.167c-.323-.62-1.101-1.023-1.792-.927-.594.081-1.088.575-1.262 1.271-.187.751-.052 1.475.219 2.179.44 1.148 1.138 2.13 1.997 2.999.595.6 1.069.59 1.654-.021.812-.849 1.471-1.802 1.928-2.888.27-.64.469-1.299.499-1.999.021-.505-.044-.992-.331-1.425-.366-.551-.967-.714-1.558-.423-.367.181-.658.451-.887.786-.131.192-.246.395-.382.615m11.44 3.226a5.9 5.9 0 0 1-.663 2.686c-.74 1.422-1.81 2.523-3.242 3.262-1.412.728-2.86.811-4.338.232-.6-.236-1.198-.479-1.783-.748-1.064-.49-2.122-.486-3.21-.079-.763.286-1.538.547-2.321.774a6.3 6.3 0 0 1-2.493.224c-.731-.084-1.35-.408-1.885-.898-.682-.626-1.229-1.356-1.574-2.217-.442-1.103-.335-2.168.308-3.173.504-.787 1.184-1.416 1.843-2.065.478-.473.947-.958 1.388-1.465.51-.586.813-1.292 1.065-2.018.234-.674.447-1.355.677-2.03.167-.487.473-.892.775-1.303.728-.99 1.766-1.422 2.913-1.677 1.359-.302 2.543.088 3.554.981.621.55 1.16 1.194 1.738 1.793.986 1.02 2.032 1.973 3.204 2.778.583.4 1.195.76 1.773 1.167.828.582 1.526 1.29 1.952 2.227.223.492.311 1.013.319 1.55M12.877 10.527c.003.758-.132 1.576-.49 2.345-.385.822-.94 1.472-1.855 1.725-.752.209-1.446.04-2.094-.364-.851-.532-1.427-1.303-1.856-2.191a7.66 7.66 0 0 1-.734-4.078c.075-.842.313-1.629.784-2.345.811-1.234 2.269-1.583 3.537-.832.822.487 1.399 1.199 1.837 2.03.597 1.133.881 2.344.871 3.71M21.731 8.27c.002 1.544-.283 2.84-.986 4.024-.392.663-.894 1.227-1.589 1.59-1.014.53-2.132.336-2.928-.494-.631-.656-.973-1.455-1.157-2.33-.316-1.512-.153-2.989.383-4.425.259-.695.637-1.332 1.181-1.845.502-.473 1.073-.843 1.785-.903.905-.075 1.616.309 2.185.987.586.7.878 1.529 1.023 2.414.063.381.082.77.103.982M.5 15.712c.013-.69.144-1.338.554-1.9.536-.735 1.286-1.006 2.171-.95.897.055 1.66.443 2.345.989 1.22.973 2.028 2.215 2.349 3.752.142.68.152 1.367-.085 2.03-.41 1.138-1.342 1.726-2.558 1.632-.757-.059-1.423-.361-2.033-.792-1.317-.928-2.165-2.19-2.595-3.732-.092-.331-.1-.686-.148-1.03M28.207 13.561c-.204 2.142-1.075 3.797-2.764 4.99q-.707.494-1.574.58c-.974.1-1.86-.45-2.227-1.389-.322-.825-.303-1.67-.1-2.51.39-1.617 1.259-2.924 2.625-3.882a3 3 0 0 1 2.03-.535c.857.071 1.582.715 1.833 1.661.101.383.13.785.177 1.085M68.374 20.664h1.971l-2.599 3.145 2.828 3.414h-2.03l-2.681-3.326v3.326h-1.79v-6.56h1.79v3.187zM62.836 23.932q0 .82-.223 1.455-.217.633-.64 1.073a2.7 2.7 0 0 1-1.009.658 3.7 3.7 0 0 1-1.326.223q-.693 0-1.273-.223a2.8 2.8 0 0 1-1.004-.657 3.1 3.1 0 0 1-.657-1.074q-.228-.635-.228-1.455 0-1.092.387-1.848a2.66 2.66 0 0 1 1.103-1.15q.715-.393 1.707-.393.921 0 1.631.393.716.393 1.12 1.15.412.756.412 1.848m-4.536 0q0 .645.141 1.085.14.441.44.663t.78.223q.475 0 .77-.223.298-.223.433-.663.141-.44.141-1.085 0-.651-.14-1.08-.136-.434-.435-.651-.3-.217-.78-.217-.71 0-1.033.487-.317.487-.317 1.46M55.237 20.664v6.56h-1.795v-5.217h-2.377v5.216h-1.79v-6.56zM44.94 20.529q1.32 0 2.023.575.705.575.704 1.748v4.371h-1.25l-.345-.892h-.047a3.3 3.3 0 0 1-.575.575 2 2 0 0 1-.675.329q-.381.105-.927.106-.58 0-1.044-.223a1.66 1.66 0 0 1-.722-.681q-.264-.463-.264-1.173 0-1.045.733-1.538.735-.498 2.2-.551l1.139-.035v-.288q0-.516-.27-.757-.27-.24-.751-.24-.476 0-.933.135t-.915.34l-.593-1.209a5 5 0 0 1 1.168-.434 5.7 5.7 0 0 1 1.343-.158m.95 3.655-.693.023q-.868.024-1.208.311a.95.95 0 0 0-.335.757q0 .411.24.587.241.17.629.17.575 0 .968-.34.399-.34.399-.968zM40.468 27.223h-1.813V20.16h-2.1l-.153 1.203q-.081.651-.17 1.314-.087.663-.187 1.262-.095.598-.188 1.05-.152.75-.417 1.279a1.9 1.9 0 0 1-.71.798q-.445.276-1.167.276a3 3 0 0 1-.869-.13v-1.49q.153.053.305.088.153.03.335.03.234 0 .387-.153.159-.159.282-.534.123-.381.246-1.05.053-.294.14-.827.09-.54.2-1.262.112-.727.23-1.584.122-.856.234-1.784h5.415zM80.772 9.543q1.32 0 2.024.575t.704 1.749v4.37h-1.25l-.346-.891h-.047q-.282.352-.575.575-.292.223-.675.328-.381.105-.927.106a2.4 2.4 0 0 1-1.044-.223 1.66 1.66 0 0 1-.722-.68q-.264-.464-.264-1.174 0-1.044.734-1.537.733-.499 2.2-.552l1.138-.035v-.287q0-.516-.27-.757-.27-.24-.75-.24a3.3 3.3 0 0 0-.934.134q-.457.136-.915.34l-.592-1.208a5 5 0 0 1 1.167-.434 5.7 5.7 0 0 1 1.344-.159m.95 3.656-.692.023q-.868.024-1.209.31a.95.95 0 0 0-.334.758q0 .411.24.587.24.17.628.17.575 0 .968-.34.4-.341.4-.969zM75.185 9.678h1.972l-2.6 3.145 2.829 3.415h-2.03l-2.682-3.327v3.327h-1.79v-6.56h1.79v3.186zM64.96 9.678v2.523h2.499V9.678h1.79v6.56h-1.79v-2.705h-2.5v2.705h-1.79v-6.56zM56.48 9.678v2.593q0 .2-.017.505-.012.3-.035.61a29 29 0 0 1-.082.892l3.027-4.6h2.154v6.56h-1.731V13.62q0-.323.023-.71.024-.393.053-.74.03-.345.041-.521l-3.016 4.588H54.75v-6.56zM53.764 11.022h-2.147v5.216h-1.79v-5.216h-2.153V9.678h6.09zM44.001 9.543q1.32 0 2.024.575.705.575.704 1.749v4.37h-1.25l-.345-.891h-.047q-.282.352-.575.575t-.675.328-.927.106a2.4 2.4 0 0 1-1.044-.223 1.66 1.66 0 0 1-.722-.68q-.264-.464-.264-1.174 0-1.044.733-1.537.735-.499 2.2-.552l1.139-.035v-.287q0-.516-.27-.757-.27-.24-.751-.24a3.3 3.3 0 0 0-.933.134 7 7 0 0 0-.915.34l-.593-1.208a5 5 0 0 1 1.168-.434A5.7 5.7 0 0 1 44 9.543m.95 3.656-.692.023q-.867.024-1.208.31a.95.95 0 0 0-.335.758q0 .411.24.587.241.17.629.17.575 0 .968-.34.399-.341.399-.969zM40.616 16.238H38.54l-1.995-3.245-1.994 3.245h-1.948l2.845-4.424-2.664-4.154h2.007l1.848 3.086 1.813-3.086h1.96l-2.693 4.254z"/>
</symbol>
<symbol id="icon-star-filled" viewBox="0 0 24 24">
<path fill="#02060a" d="M11.07 3.612c.345-.816 1.515-.816 1.86 0l2.028 4.82c.145.343.473.579.849.608l5.266.417c.892.071 1.254 1.171.574 1.746L17.635 14.6a.99.99 0 0 0-.324.985l1.225 5.077c.208.86-.74 1.54-1.503 1.08l-4.509-2.721a1.02 1.02 0 0 0-1.048 0l-4.509 2.72c-.764.461-1.711-.219-1.503-1.079l1.225-5.077a.99.99 0 0 0-.324-.985l-4.012-3.396c-.68-.575-.318-1.675.574-1.746l5.266-.417c.377-.03.704-.265.85-.609z"/>
</symbol>
<symbol id="icon-arrow_back" viewBox="0 0 24 24">
<path fill="#02060a" stroke="#02060a" d="M12.008 4.687c.085 0 .159.026.241.108a.34.34 0 0 1 .108.249c0 .087-.026.16-.108.243l-6.361 6.361h13.41c.121 0 .197.036.26.1a.32.32 0 0 1 .097.252c0 .12-.034.192-.096.253a.34.34 0 0 1-.261.099H5.888l6.355 6.355c.082.081.11.158.111.25v.001a.3.3 0 0 1-.055.185l-.052.061a.31.31 0 0 1-.242.107.34.34 0 0 1-.256-.114L4.801 12.25a.4.4 0 0 1-.091-.125v-.001a.3.3 0 0 1-.023-.124q0-.07.023-.122v-.001a.4.4 0 0 1 .09-.125l6.951-6.95a.35.35 0 0 1 .257-.114Z"/>
</symbol>
<symbol id="icon-alternate-false" viewBox="0 0 84 36">
<path fill="#332c22" d="m14.781 21.335-.085-.167c-.323-.62-1.101-1.023-1.792-.927-.594.081-1.088.575-1.262 1.271-.187.751-.052 1.475.219 2.179.44 1.148 1.138 2.13 1.997 2.999.595.6 1.069.59 1.654-.021.812-.849 1.471-1.802 1.928-2.888.27-.64.469-1.299.499-1.999.021-.505-.044-.992-.331-1.425-.366-.551-.967-.714-1.558-.423-.367.181-.658.451-.887.786-.131.192-.246.395-.382.615m11.44 3.226a5.9 5.9 0 0 1-.663 2.686c-.74 1.422-1.81 2.523-3.242 3.262-1.412.728-2.86.811-4.338.232-.6-.236-1.198-.479-1.783-.748-1.064-.49-2.122-.486-3.21-.079-.763.286-1.538.547-2.321.774a6.3 6.3 0 0 1-2.493.224c-.731-.084-1.35-.408-1.885-.898-.682-.626-1.229-1.356-1.574-2.217-.442-1.103-.335-2.168.308-3.173.504-.787 1.184-1.416 1.843-2.065.478-.473.947-.958 1.388-1.465.51-.586.813-1.292 1.065-2.018.234-.674.447-1.355.677-2.03.167-.487.473-.892.775-1.303.728-.99 1.766-1.422 2.913-1.677 1.359-.302 2.543.088 3.554.981.621.55 1.16 1.194 1.738 1.793.986 1.02 2.032 1.973 3.204 2.778.583.4 1.195.76 1.773 1.167.828.582 1.526 1.29 1.952 2.227.223.492.311 1.013.319 1.55M12.877 10.527c.003.758-.132 1.576-.49 2.345-.385.822-.94 1.472-1.855 1.725-.752.209-1.446.04-2.094-.364-.851-.532-1.427-1.303-1.856-2.191a7.66 7.66 0 0 1-.734-4.078c.075-.842.313-1.629.784-2.345.811-1.234 2.269-1.583 3.537-.832.822.487 1.399 1.199 1.837 2.03.597 1.133.881 2.344.871 3.71M21.731 8.27c.002 1.544-.283 2.84-.986 4.024-.392.663-.894 1.227-1.589 1.59-1.014.53-2.132.336-2.928-.494-.631-.656-.973-1.455-1.157-2.33-.316-1.512-.153-2.989.383-4.425.259-.695.637-1.332 1.181-1.845.502-.473 1.073-.843 1.785-.903.905-.075 1.616.309 2.185.987.586.7.878 1.529 1.023 2.414.063.381.082.77.103.982M.5 15.712c.013-.69.144-1.338.554-1.9.536-.735 1.286-1.006 2.171-.95.897.055 1.66.443 2.345.989 1.22.973 2.028 2.215 2.349 3.752.142.68.152 1.367-.085 2.03-.41 1.138-1.342 1.726-2.558 1.632-.757-.059-1.423-.361-2.033-.792-1.317-.928-2.165-2.19-2.595-3.732-.092-.331-.1-.686-.148-1.03M28.207 13.561c-.204 2.142-1.075 3.797-2.764 4.99q-.707.494-1.574.58c-.974.1-1.86-.45-2.227-1.389-.322-.825-.303-1.67-.1-2.51.39-1.617 1.259-2.924 2.625-3.882a3 3 0 0 1 2.03-.535c.857.071 1.582.715 1.833 1.661.101.383.13.785.177 1.085M68.374 20.664h1.971l-2.599 3.145 2.828 3.414h-2.03l-2.681-3.326v3.326h-1.79v-6.56h1.79v3.187zM62.836 23.932q0 .82-.223 1.455-.217.633-.64 1.073a2.7 2.7 0 0 1-1.009.658 3.7 3.7 0 0 1-1.326.223q-.693 0-1.273-.223a2.8 2.8 0 0 1-1.004-.657 3.1 3.1 0 0 1-.657-1.074q-.228-.635-.228-1.455 0-1.092.387-1.848a2.66 2.66 0 0 1 1.103-1.15q.715-.393 1.707-.393.921 0 1.631.393.716.393 1.12 1.15.412.756.412 1.848m-4.536 0q0 .645.141 1.085.14.441.44.663t.78.223q.475 0 .77-.223.298-.223.433-.663.141-.44.141-1.085 0-.651-.14-1.08-.136-.434-.435-.651-.3-.217-.78-.217-.71 0-1.033.487-.317.487-.317 1.46M55.237 20.664v6.56h-1.795v-5.217h-2.377v5.216h-1.79v-6.56zM44.94 20.529q1.32 0 2.023.575.705.575.704 1.748v4.371h-1.25l-.345-.892h-.047a3.3 3.3 0 0 1-.575.575 2 2 0 0 1-.675.329q-.381.105-.927.106-.58 0-1.044-.223a1.66 1.66 0 0 1-.722-.681q-.264-.463-.264-1.173 0-1.045.733-1.538.735-.498 2.2-.551l1.139-.035v-.288q0-.516-.27-.757-.27-.24-.751-.24-.476 0-.933.135t-.915.34l-.593-1.209a5 5 0 0 1 1.168-.434 5.7 5.7 0 0 1 1.343-.158m.95 3.655-.693.023q-.868.024-1.208.311a.95.95 0 0 0-.335.757q0 .411.24.587.241.17.629.17.575 0 .968-.34.399-.34.399-.968zM40.468 27.223h-1.813V20.16h-2.1l-.153 1.203q-.081.651-.17 1.314-.087.663-.187 1.262-.095.598-.188 1.05-.152.75-.417 1.279a1.9 1.9 0 0 1-.71.798q-.445.276-1.167.276a3 3 0 0 1-.869-.13v-1.49q.153.053.305.088.153.03.335.03.234 0 .387-.153.159-.159.282-.534.123-.381.246-1.05.053-.294.14-.827.09-.54.2-1.262.112-.727.23-1.584.122-.856.234-1.784h5.415zM80.772 9.543q1.32 0 2.024.575t.704 1.749v4.37h-1.25l-.346-.891h-.047q-.282.352-.575.575-.292.223-.675.328-.381.105-.927.106a2.4 2.4 0 0 1-1.044-.223 1.66 1.66 0 0 1-.722-.68q-.264-.464-.264-1.174 0-1.044.734-1.537.733-.499 2.2-.552l1.138-.035v-.287q0-.516-.27-.757-.27-.24-.75-.24a3.3 3.3 0 0 0-.934.134q-.457.136-.915.34l-.592-1.208a5 5 0 0 1 1.167-.434 5.7 5.7 0 0 1 1.344-.159m.95 3.656-.692.023q-.868.024-1.209.31a.95.95 0 0 0-.334.758q0 .411.24.587.24.17.628.17.575 0 .968-.34.4-.341.4-.969zM75.185 9.678h1.972l-2.6 3.145 2.829 3.415h-2.03l-2.682-3.327v3.327h-1.79v-6.56h1.79v3.186zM64.96 9.678v2.523h2.499V9.678h1.79v6.56h-1.79v-2.705h-2.5v2.705h-1.79v-6.56zM56.48 9.678v2.593q0 .2-.017.505-.012.3-.035.61a29 29 0 0 1-.082.892l3.027-4.6h2.154v6.56h-1.731V13.62q0-.323.023-.71.024-.393.053-.74.03-.345.041-.521l-3.016 4.588H54.75v-6.56zM53.764 11.022h-2.147v5.216h-1.79v-5.216h-2.153V9.678h6.09zM44.001 9.543q1.32 0 2.024.575.705.575.704 1.749v4.37h-1.25l-.345-.891h-.047q-.282.352-.575.575t-.675.328-.927.106a2.4 2.4 0 0 1-1.044-.223 1.66 1.66 0 0 1-.722-.68q-.264-.464-.264-1.174 0-1.044.733-1.537.735-.499 2.2-.552l1.139-.035v-.287q0-.516-.27-.757-.27-.24-.751-.24a3.3 3.3 0 0 0-.933.134 7 7 0 0 0-.915.34l-.593-1.208a5 5 0 0 1 1.168-.434A5.7 5.7 0 0 1 44 9.543m.95 3.656-.692.023q-.867.024-1.208.31a.95.95 0 0 0-.335.758q0 .411.24.587.241.17.629.17.575 0 .968-.34.399-.341.399-.969zM40.616 16.238H38.54l-1.995-3.245-1.994 3.245h-1.948l2.845-4.424-2.664-4.154h2.007l1.848 3.086 1.813-3.086h1.96l-2.693 4.254z"/>
</symbol>
<symbol id="icon-close" viewBox="0 0 24 24">
<path fill="#02060a" stroke="#02060a" d="M17.6 5.925c.164 0 .266.048.346.129a.45.45 0 0 1 .13.346.45.45 0 0 1-.13.346L12.692 12l.354.354 4.9 4.9c.08.08.13.182.13.346a.45.45 0 0 1-.13.346.45.45 0 0 1-.346.13.45.45 0 0 1-.347-.13l-4.9-4.9-.353-.353-5.254 5.254a.45.45 0 0 1-.347.128.45.45 0 0 1-.345-.128.45.45 0 0 1-.13-.347c0-.164.05-.267.13-.347L11.307 12l-.354-.353-4.9-4.9a.45.45 0 0 1-.128-.347.45.45 0 0 1 .129-.346.45.45 0 0 1 .345-.129c.165 0 .267.048.347.129l4.9 4.9.354.353 5.253-5.253a.45.45 0 0 1 .347-.129Z"/>
</symbol>
<symbol id="icon-menu" viewBox="0 0 24 24">
<path fill="#02060a" d="M3.702 18.221a.82.82 0 0 1-.606-.247.84.84 0 0 1-.245-.615q0-.362.245-.605a.83.83 0 0 1 .606-.242h16.596q.36 0 .61.247a.83.83 0 0 1 .248.609q0 .37-.249.61a.84.84 0 0 1-.61.243zm0-5.37a.82.82 0 0 1-.606-.246.83.83 0 0 1-.245-.61q0-.362.245-.604a.83.83 0 0 1 .606-.243h16.596q.36 0 .61.247a.83.83 0 0 1 .248.61.84.84 0 0 1-.858.847zm0-5.363a.82.82 0 0 1-.606-.247.84.84 0 0 1-.245-.615q0-.362.245-.605a.83.83 0 0 1 .606-.242h16.596q.36 0 .61.247a.83.83 0 0 1 .248.609q0 .369-.249.61a.84.84 0 0 1-.61.243z"/>
</symbol>
<symbol id="icon-arrow_forward" viewBox="0 0 24 24">
<path fill="#02060a" stroke="#02060a" d="M11.995 4.69c.071 0 .133.017.195.06l.061.053 6.948 6.948a.4.4 0 0 1 .091.125v.001a.3.3 0 0 1 .024.124.3.3 0 0 1-.024.122v.001a.4.4 0 0 1-.09.125l-6.955 6.948c-.091.09-.17.117-.253.117-.08 0-.153-.025-.236-.11l-.005-.006-.052-.06a.3.3 0 0 1-.056-.183c0-.065.014-.122.056-.182l.052-.06 6.361-6.361H4.702c-.122 0-.194-.036-.255-.096-.062-.061-.096-.134-.096-.256s.034-.195.095-.256h.001c.06-.06.133-.095.255-.096h13.41l-6.355-6.355a.35.35 0 0 1-.106-.185l-.005-.067c-.001-.09.025-.164.105-.244l.001-.001a.31.31 0 0 1 .243-.107Z"/>
</symbol>
<symbol id="icon-star-half" viewBox="0 0 24 24">
<path fill="url(#a)" stroke="#02060a" d="M11.531 3.807a.512.512 0 0 1 .938 0l2.028 4.818c.219.519.71.87 1.27.914l5.266.417a.491.491 0 0 1 .291.865l-4.013 3.396c-.43.363-.62.937-.487 1.485l1.227 5.076c.1.412-.362.774-.76.534h-.001l-4.507-2.72a1.52 1.52 0 0 0-1.566 0l-4.508 2.72c-.398.24-.86-.122-.76-.534l1.227-5.076a1.49 1.49 0 0 0-.488-1.485L2.676 10.82a.491.491 0 0 1 .29-.865l5.266-.417a1.51 1.51 0 0 0 1.27-.914z"/><defs><linearGradient id="a" x1="2" x2="22" y1="12.372" y2="12.372" gradientUnits="userSpaceOnUse"><stop offset=".5" stop-color="#02060a"/><stop offset=".5" stop-color="#02060a" stop-opacity="0"/></linearGradient></defs>
</symbol>
<symbol id="icon-instagram" viewBox="0 0 24 24">
<path fill="#0d0b0a" d="M11.999 4.62c2.404 0 2.689.012 3.634.054.88.039 1.353.186 1.67.31.418.161.72.358 1.033.67.317.317.51.616.675 1.034.123.317.27.795.31 1.67.042.95.052 1.234.052 3.635s-.01 2.69-.053 3.635c-.038.88-.186 1.353-.309 1.67a2.8 2.8 0 0 1-.671 1.033c-.317.317-.616.51-1.034.675-.316.123-.794.27-1.67.31-.949.042-1.233.052-3.634.052s-2.69-.01-3.635-.053c-.88-.038-1.354-.186-1.67-.309a2.8 2.8 0 0 1-1.034-.672 2.8 2.8 0 0 1-.675-1.033c-.123-.316-.27-.794-.31-1.67-.041-.949-.052-1.233-.052-3.635 0-2.4.01-2.688.053-3.634.039-.88.186-1.354.31-1.67.161-.419.358-.72.67-1.034a2.8 2.8 0 0 1 1.034-.675c.317-.123.795-.27 1.67-.31.946-.041 1.23-.052 3.635-.052m0-1.62c-2.443 0-2.749.011-3.709.053-.956.043-1.613.197-2.183.419a4.4 4.4 0 0 0-1.595 1.04 4.4 4.4 0 0 0-1.04 1.593c-.222.573-.377 1.226-.42 2.182C3.012 9.251 3 9.557 3 12c0 2.444.01 2.749.053 3.709.042.956.197 1.614.418 2.183a4.4 4.4 0 0 0 1.04 1.595 4.4 4.4 0 0 0 1.593 1.037c.573.222 1.227.377 2.183.419.96.042 1.265.053 3.708.053s2.75-.01 3.71-.053c.955-.042 1.613-.197 2.182-.419a4.4 4.4 0 0 0 1.592-1.037c.499-.5.809-1.001 1.037-1.592.222-.573.376-1.226.419-2.183.042-.96.053-1.265.053-3.708s-.011-2.749-.053-3.709c-.043-.956-.197-1.613-.419-2.183a4.2 4.2 0 0 0-1.03-1.6 4.4 4.4 0 0 0-1.592-1.036c-.573-.222-1.226-.377-2.183-.419C14.748 3.011 14.443 3 12 3"/><path fill="#0d0b0a" d="M11.998 7.377a4.624 4.624 0 0 0 0 9.245 4.623 4.623 0 0 0 0-9.245m0 7.62a2.998 2.998 0 1 1 0-5.996 2.998 2.998 0 0 1 0 5.997M17.881 7.194a1.08 1.08 0 1 1-2.158 0 1.08 1.08 0 0 1 2.158 0"/>
</symbol>
</svg>