<svg aria-hidden="true" style="position: absolute; width: 0; height: 0; overflow: hidden;" version="1.1" xmlns="http://www.w3.org/2000/svg" xmlns:xlink="http://www.w3.org/1999/xlink">
<defs>
<symbol id="icon-add" viewBox="0 0 32 32">
<path d="M14.864 17.136h-7.261q-0.481 0-0.808-0.329c-0.327-0.329-0.327-0.49-0.327-0.812q0-0.483 0.327-0.806c0.327-0.323 0.488-0.323 0.808-0.323h7.261v-7.261q0-0.48 0.329-0.812c0.329-0.332 0.49-0.332 0.812-0.332q0.483 0 0.806 0.332c0.323 0.332 0.323 0.492 0.323 0.812v7.261h7.261q0.48 0 0.812 0.329c0.332 0.329 0.332 0.49 0.332 0.812q0 0.483-0.332 0.806c-0.332 0.323-0.492 0.323-0.812 0.323h-7.261v7.261q0 0.481-0.329 0.808c-0.329 0.327-0.49 0.327-0.812 0.327q-0.483 0-0.806-0.327c-0.323-0.327-0.323-0.488-0.323-0.808z"></path>
</symbol>
<symbol id="icon-alternate_false" viewBox="0 0 75 32">
<path d="M13.139 18.964l-0.076-0.148c-0.287-0.551-0.979-0.909-1.593-0.824-0.527 0.073-0.967 0.511-1.121 1.13-0.166 0.668-0.046 1.311 0.194 1.937 0.392 1.020 1.012 1.893 1.776 2.665 0.528 0.534 0.95 0.525 1.47-0.018 0.722-0.754 1.308-1.601 1.714-2.567 0.24-0.569 0.416-1.155 0.443-1.777 0.019-0.449-0.039-0.882-0.294-1.267-0.325-0.49-0.859-0.634-1.384-0.375-0.324 0.165-0.59 0.401-0.784 0.691l-0.005 0.007c-0.117 0.171-0.219 0.351-0.339 0.546zM23.307 21.832c-0.007 0.873-0.224 1.694-0.603 2.417l0.014-0.029c-0.657 1.263-1.608 2.243-2.882 2.899-1.255 0.647-2.541 0.721-3.856 0.206-0.727-0.277-1.25-0.501-1.765-0.74l0.179 0.075c-0.945-0.436-1.886-0.432-2.853-0.070-0.679 0.254-1.368 0.486-2.064 0.687-0.479 0.148-1.029 0.233-1.599 0.233-0.217 0-0.431-0.012-0.642-0.036l0.026 0.002c-0.65-0.074-1.2-0.362-1.676-0.798-0.607-0.556-1.093-1.205-1.399-1.97-0.393-0.981-0.298-1.927 0.273-2.821 0.448-0.7 1.052-1.258 1.638-1.836 0.426-0.42 0.842-0.851 1.235-1.302 0.452-0.521 0.723-1.149 0.946-1.794 0.208-0.599 0.397-1.204 0.602-1.804 0.148-0.433 0.42-0.794 0.689-1.159 0.647-0.879 1.57-1.264 2.589-1.491 1.208-0.269 2.261 0.078 3.159 0.872 0.553 0.489 1.031 1.061 1.546 1.594 0.876 0.907 1.806 1.754 2.847 2.469 0.518 0.356 1.062 0.675 1.576 1.037 0.736 0.518 1.356 1.146 1.735 1.98 0.198 0.437 0.277 0.9 0.283 1.377zM11.447 9.358c0 0.019 0 0.041 0 0.063 0 0.733-0.161 1.428-0.449 2.052l0.013-0.030c-0.341 0.731-0.836 1.309-1.648 1.534-0.669 0.185-1.286 0.036-1.861-0.323-0.757-0.473-1.269-1.159-1.65-1.948-0.432-0.868-0.684-1.891-0.684-2.973 0-0.23 0.011-0.457 0.034-0.68l-0.002 0.028c0.067-0.748 0.279-1.448 0.697-2.084 0.721-1.097 2.017-1.407 3.144-0.74 0.731 0.433 1.243 1.066 1.633 1.804 0.531 1.007 0.784 2.083 0.775 3.298zM19.317 7.351c0.001 1.372-0.252 2.524-0.876 3.577-0.349 0.589-0.795 1.091-1.412 1.413-0.902 0.471-1.895 0.299-2.603-0.438-0.561-0.584-0.865-1.294-1.028-2.071-0.281-1.344-0.136-2.657 0.34-3.934 0.23-0.618 0.567-1.184 1.050-1.64 0.446-0.42 0.953-0.75 1.586-0.802 0.805-0.067 1.437 0.274 1.942 0.877 0.521 0.622 0.781 1.359 0.91 2.145 0.056 0.339 0.072 0.685 0.091 0.873zM0.444 13.966c0.011-0.613 0.128-1.189 0.492-1.689 0.476-0.653 1.143-0.894 1.93-0.845 0.797 0.050 1.475 0.394 2.084 0.88 1.085 0.865 1.802 1.969 2.088 3.336 0.126 0.604 0.136 1.214-0.076 1.803-0.364 1.012-1.193 1.535-2.274 1.451-0.672-0.052-1.264-0.321-1.807-0.704-1.171-0.825-1.924-1.947-2.306-3.318-0.082-0.294-0.090-0.609-0.132-0.915zM25.073 12.054c-0.181 1.904-0.956 3.375-2.457 4.435-0.392 0.28-0.869 0.466-1.386 0.516l-0.012 0.001c-0.866 0.088-1.654-0.4-1.98-1.234-0.286-0.734-0.27-1.484-0.090-2.231 0.346-1.438 1.119-2.599 2.334-3.451 0.43-0.306 0.965-0.489 1.543-0.489 0.092 0 0.183 0.005 0.272 0.014l-0.011-0.001c0.762 0.064 1.407 0.636 1.63 1.477 0.090 0.34 0.116 0.697 0.158 0.964zM60.777 18.368h1.752l-2.31 2.795 2.514 3.035h-1.805l-2.383-2.957v2.957h-1.591v-5.831h1.591v2.832l2.232-2.832zM55.854 21.273q0 0.73-0.198 1.293c-0.124 0.371-0.319 0.69-0.569 0.955l0.001-0.001c-0.245 0.253-0.545 0.452-0.88 0.579l-0.017 0.005c-0.335 0.126-0.723 0.198-1.127 0.198-0.018 0-0.037-0-0.055-0l0.003 0q-0.615 0-1.132-0.198c-0.349-0.135-0.646-0.334-0.892-0.584l-0-0c-0.251-0.265-0.45-0.583-0.578-0.935l-0.006-0.019c-0.129-0.366-0.204-0.788-0.204-1.227 0-0.023 0-0.046 0.001-0.069l-0 0.003q0-0.97 0.344-1.643c0.344-0.673 0.556-0.789 0.98-1.022q0.636-0.35 1.518-0.349 0.819 0 1.45 0.349 0.636 0.35 0.996 1.022 0.365 0.673 0.365 1.643zM51.822 21.273q0 0.574 0.125 0.965c0.125 0.391 0.214 0.457 0.391 0.589q0.266 0.198 0.694 0.198 0.422 0 0.683-0.198 0.266-0.198 0.386-0.589 0.125-0.391 0.125-0.965 0-0.579-0.125-0.96-0.12-0.386-0.386-0.579c-0.266-0.193-0.409-0.193-0.694-0.193q-0.632 0-0.918 0.433-0.282 0.433-0.282 1.299zM49.099 18.368v5.831h-1.596v-4.636h-2.112v4.636h-1.591v-5.831zM39.946 18.248q1.173 0 1.799 0.511c0.626 0.511 0.626 0.859 0.626 1.554v3.885h-1.111l-0.308-0.793h-0.042q-0.25 0.313-0.511 0.511c-0.261 0.198-0.374 0.23-0.6 0.292-0.228 0.060-0.49 0.095-0.76 0.095-0.022 0-0.045-0-0.067-0.001l0.003 0q-0.517 0-0.928-0.198c-0.272-0.136-0.491-0.343-0.638-0.598l-0.004-0.007q-0.234-0.412-0.235-1.043 0-0.928 0.652-1.366 0.653-0.444 1.956-0.49l1.012-0.031v-0.256q0-0.459-0.24-0.673c-0.24-0.214-0.383-0.214-0.668-0.214q-0.423 0-0.829 0.12c-0.406 0.12-0.542 0.181-0.814 0.302l-0.527-1.074c0.298-0.159 0.644-0.291 1.007-0.38l0.031-0.006c0.354-0.090 0.761-0.141 1.179-0.141 0.005 0 0.010 0 0.016 0h-0.001zM40.791 21.497l-0.615 0.021q-0.773 0.021-1.074 0.276c-0.183 0.155-0.298 0.385-0.298 0.641 0 0.011 0 0.022 0.001 0.033l-0-0.002q0 0.364 0.214 0.522 0.214 0.151 0.558 0.151 0.511 0 0.861-0.302 0.354-0.302 0.355-0.861v-0.48zM35.972 24.198h-1.611v-6.279h-1.867l-0.136 1.069q-0.073 0.579-0.151 1.168-0.078 0.59-0.167 1.121c-0.066 0.433-0.124 0.75-0.19 1.064l0.023-0.13c-0.081 0.428-0.209 0.809-0.382 1.164l0.012-0.027c-0.141 0.296-0.357 0.537-0.624 0.705l-0.007 0.004q-0.396 0.245-1.038 0.245c-0.003 0-0.007 0-0.010 0-0.272 0-0.534-0.042-0.78-0.119l0.018 0.005v-1.325q0.136 0.046 0.271 0.078 0.135 0.026 0.297 0.026c0.005 0 0.011 0 0.017 0 0.128 0 0.243-0.052 0.327-0.136l0-0q0.14-0.14 0.25-0.475 0.11-0.339 0.219-0.933 0.047-0.261 0.125-0.735 0.078-0.48 0.177-1.121 0.1-0.647 0.203-1.408 0.11-0.762 0.209-1.585h4.814v7.625zM71.797 8.483q1.173 0 1.799 0.511c0.626 0.511 0.626 0.859 0.626 1.554v3.885h-1.111l-0.308-0.793h-0.042q-0.25 0.313-0.511 0.511c-0.261 0.198-0.374 0.229-0.6 0.292-0.228 0.060-0.49 0.095-0.76 0.095-0.022 0-0.045-0-0.067-0.001l0.003 0q-0.517 0-0.928-0.198c-0.273-0.134-0.492-0.342-0.637-0.598l-0.004-0.007q-0.234-0.412-0.235-1.043 0-0.928 0.652-1.366 0.653-0.444 1.956-0.49l1.012-0.031v-0.256q0-0.459-0.24-0.673c-0.24-0.214-0.382-0.214-0.668-0.214q-0.423 0-0.829 0.12c-0.406 0.12-0.542 0.181-0.814 0.303l-0.527-1.074c0.298-0.159 0.644-0.291 1.007-0.38l0.031-0.006c0.354-0.090 0.761-0.141 1.179-0.141 0.005 0 0.010 0 0.016 0h-0.001zM72.642 11.732l-0.615 0.021q-0.772 0.021-1.074 0.276c-0.183 0.155-0.298 0.385-0.298 0.641 0 0.011 0 0.022 0.001 0.033l-0-0.002q0 0.365 0.214 0.521 0.214 0.151 0.558 0.151 0.512 0 0.86-0.303 0.355-0.303 0.355-0.861v-0.48zM66.831 8.603h1.752l-2.31 2.795 2.514 3.035h-1.805l-2.383-2.957v2.957h-1.591v-5.831h1.591v2.832zM57.742 8.603v2.243h2.222v-2.243h1.591v5.831h-1.591v-2.404h-2.222v2.404h-1.591v-5.831zM50.205 8.603v2.305q0 0.177-0.016 0.449-0.010 0.266-0.031 0.542c-0.021 0.276-0.028 0.349-0.042 0.495q-0.020 0.219-0.031 0.297l2.691-4.089h1.914v5.831h-1.538v-2.326q0-0.287 0.021-0.631 0.021-0.35 0.047-0.657c0.026-0.307 0.030-0.36 0.037-0.464l-2.681 4.078h-1.909v-5.831zM47.791 9.797h-1.909v4.636h-1.591v-4.636h-1.914v-1.194h5.413v1.194zM39.112 8.483q1.173 0 1.799 0.511c0.626 0.511 0.626 0.859 0.626 1.554v3.885h-1.111l-0.308-0.793h-0.042q-0.25 0.313-0.511 0.511c-0.261 0.198-0.374 0.229-0.6 0.292-0.228 0.060-0.49 0.095-0.76 0.095-0.022 0-0.045-0-0.067-0.001l0.003 0q-0.517 0-0.928-0.198c-0.272-0.136-0.491-0.343-0.638-0.598l-0.004-0.007q-0.234-0.412-0.235-1.043 0-0.928 0.652-1.366 0.653-0.444 1.956-0.49l1.012-0.031v-0.256q0-0.459-0.24-0.673c-0.24-0.214-0.383-0.214-0.668-0.214q-0.423 0-0.829 0.12c-0.406 0.12-0.542 0.181-0.813 0.303l-0.527-1.074c0.298-0.159 0.644-0.291 1.007-0.38l0.031-0.006c0.354-0.090 0.761-0.141 1.179-0.141 0.005 0 0.010 0 0.016 0h-0.001zM39.957 11.732l-0.615 0.021q-0.772 0.021-1.074 0.276c-0.183 0.155-0.298 0.385-0.298 0.641 0 0.011 0 0.022 0.001 0.033l-0-0.002q0 0.365 0.214 0.521 0.214 0.151 0.558 0.151 0.512 0 0.861-0.303 0.354-0.303 0.355-0.861v-0.48zM36.103 14.434h-1.846l-1.773-2.884-1.773 2.884h-1.731l2.529-3.932-2.368-3.692h1.784l1.643 2.743 1.611-2.743h1.742l-2.394 3.781z"></path>
</symbol>
<symbol id="icon-alternate_true" viewBox="0 0 75 32">
<path fill="#f6f4f1" style="fill: var(--color1, #f6f4f1)" d="M13.139 18.964l-0.076-0.148c-0.287-0.551-0.979-0.909-1.593-0.824-0.527 0.073-0.967 0.511-1.121 1.13-0.166 0.668-0.046 1.311 0.194 1.937 0.392 1.020 1.012 1.893 1.776 2.665 0.528 0.534 0.95 0.525 1.47-0.018 0.722-0.754 1.308-1.601 1.714-2.567 0.24-0.569 0.416-1.155 0.443-1.777 0.019-0.449-0.039-0.882-0.294-1.267-0.325-0.49-0.859-0.634-1.384-0.375-0.324 0.165-0.59 0.401-0.784 0.691l-0.005 0.007c-0.117 0.171-0.219 0.351-0.339 0.546zM23.307 21.832c-0.007 0.873-0.224 1.694-0.603 2.417l0.014-0.029c-0.657 1.263-1.608 2.243-2.882 2.899-1.255 0.647-2.541 0.721-3.856 0.206-0.727-0.277-1.25-0.501-1.765-0.74l0.179 0.075c-0.945-0.436-1.886-0.432-2.853-0.070-0.679 0.254-1.368 0.486-2.064 0.687-0.479 0.148-1.029 0.233-1.599 0.233-0.217 0-0.431-0.012-0.642-0.036l0.026 0.002c-0.65-0.074-1.2-0.362-1.676-0.798-0.607-0.556-1.093-1.205-1.399-1.97-0.393-0.981-0.298-1.927 0.273-2.821 0.448-0.7 1.052-1.258 1.638-1.836 0.426-0.42 0.842-0.851 1.235-1.302 0.452-0.521 0.723-1.149 0.946-1.794 0.208-0.599 0.397-1.204 0.602-1.804 0.148-0.433 0.42-0.794 0.689-1.159 0.647-0.879 1.57-1.264 2.589-1.491 1.208-0.269 2.261 0.078 3.159 0.872 0.553 0.489 1.031 1.061 1.546 1.594 0.876 0.907 1.806 1.754 2.847 2.469 0.518 0.356 1.062 0.675 1.576 1.037 0.736 0.518 1.356 1.146 1.735 1.98 0.198 0.437 0.277 0.9 0.283 1.377zM11.447 9.358c0 0.019 0 0.041 0 0.063 0 0.733-0.161 1.428-0.449 2.052l0.013-0.030c-0.341 0.731-0.836 1.309-1.648 1.534-0.669 0.185-1.286 0.036-1.861-0.323-0.757-0.473-1.269-1.159-1.65-1.948-0.432-0.868-0.684-1.891-0.684-2.973 0-0.23 0.011-0.457 0.034-0.68l-0.002 0.028c0.067-0.748 0.279-1.448 0.697-2.084 0.721-1.097 2.017-1.407 3.144-0.74 0.731 0.433 1.243 1.066 1.633 1.804 0.531 1.007 0.784 2.083 0.775 3.298zM19.317 7.351c0.001 1.372-0.252 2.524-0.876 3.577-0.349 0.589-0.795 1.091-1.412 1.413-0.902 0.471-1.895 0.299-2.603-0.438-0.561-0.584-0.865-1.294-1.028-2.071-0.281-1.344-0.136-2.657 0.34-3.934 0.23-0.618 0.567-1.184 1.050-1.64 0.446-0.42 0.953-0.75 1.586-0.802 0.805-0.067 1.437 0.274 1.942 0.877 0.521 0.622 0.781 1.359 0.91 2.145 0.056 0.339 0.072 0.685 0.091 0.873zM0.444 13.966c0.011-0.613 0.128-1.189 0.492-1.689 0.476-0.653 1.143-0.894 1.93-0.845 0.797 0.050 1.475 0.394 2.084 0.88 1.085 0.865 1.802 1.969 2.088 3.336 0.126 0.604 0.136 1.214-0.076 1.803-0.364 1.012-1.193 1.535-2.274 1.451-0.672-0.052-1.264-0.321-1.807-0.704-1.171-0.825-1.924-1.947-2.306-3.318-0.082-0.294-0.090-0.609-0.132-0.915zM25.073 12.054c-0.181 1.904-0.956 3.375-2.457 4.435-0.392 0.28-0.869 0.466-1.386 0.516l-0.012 0.001c-0.866 0.088-1.654-0.4-1.98-1.234-0.286-0.734-0.27-1.484-0.090-2.231 0.346-1.438 1.119-2.599 2.334-3.451 0.43-0.306 0.965-0.489 1.543-0.489 0.092 0 0.183 0.005 0.272 0.014l-0.011-0.001c0.762 0.064 1.407 0.636 1.63 1.477 0.090 0.34 0.116 0.697 0.158 0.964zM60.777 18.368h1.752l-2.31 2.795 2.514 3.035h-1.805l-2.383-2.957v2.957h-1.591v-5.831h1.591v2.832l2.232-2.832zM55.854 21.273q0 0.73-0.198 1.293c-0.124 0.371-0.319 0.69-0.569 0.955l0.001-0.001c-0.245 0.253-0.545 0.452-0.88 0.579l-0.017 0.005c-0.335 0.126-0.723 0.198-1.127 0.198-0.018 0-0.037-0-0.055-0l0.003 0q-0.615 0-1.132-0.198c-0.349-0.135-0.646-0.334-0.892-0.584l-0-0c-0.251-0.265-0.45-0.583-0.578-0.935l-0.006-0.019c-0.129-0.366-0.204-0.788-0.204-1.227 0-0.023 0-0.046 0.001-0.069l-0 0.003q0-0.97 0.344-1.643c0.344-0.673 0.556-0.789 0.98-1.022q0.636-0.35 1.518-0.349 0.819 0 1.45 0.349 0.636 0.35 0.996 1.022 0.365 0.673 0.365 1.643zM51.822 21.273q0 0.574 0.125 0.965c0.125 0.391 0.214 0.457 0.391 0.589q0.266 0.198 0.694 0.198 0.422 0 0.683-0.198 0.266-0.198 0.386-0.589 0.125-0.391 0.125-0.965 0-0.579-0.125-0.96-0.12-0.386-0.386-0.579c-0.266-0.193-0.409-0.193-0.694-0.193q-0.632 0-0.918 0.433-0.282 0.433-0.282 1.299zM49.099 18.368v5.831h-1.596v-4.636h-2.112v4.636h-1.591v-5.831zM39.946 18.248q1.173 0 1.799 0.511c0.626 0.511 0.626 0.859 0.626 1.554v3.885h-1.111l-0.308-0.793h-0.042q-0.25 0.313-0.511 0.511c-0.261 0.198-0.374 0.23-0.6 0.292-0.228 0.060-0.49 0.095-0.76 0.095-0.022 0-0.045-0-0.067-0.001l0.003 0q-0.517 0-0.928-0.198c-0.272-0.136-0.491-0.343-0.638-0.598l-0.004-0.007q-0.234-0.412-0.235-1.043 0-0.928 0.652-1.366 0.653-0.444 1.956-0.49l1.012-0.031v-0.256q0-0.459-0.24-0.673c-0.24-0.214-0.383-0.214-0.668-0.214q-0.423 0-0.829 0.12c-0.406 0.12-0.542 0.181-0.814 0.302l-0.527-1.074c0.298-0.159 0.644-0.291 1.007-0.38l0.031-0.006c0.354-0.090 0.761-0.141 1.179-0.141 0.005 0 0.010 0 0.016 0h-0.001zM40.791 21.497l-0.615 0.021q-0.773 0.021-1.074 0.276c-0.183 0.155-0.298 0.385-0.298 0.641 0 0.011 0 0.022 0.001 0.033l-0-0.002q0 0.364 0.214 0.522 0.214 0.151 0.558 0.151 0.511 0 0.861-0.302 0.354-0.302 0.355-0.861v-0.48zM35.972 24.198h-1.611v-6.279h-1.867l-0.136 1.069q-0.073 0.579-0.151 1.168-0.078 0.59-0.167 1.121c-0.066 0.433-0.124 0.75-0.19 1.064l0.023-0.13c-0.081 0.428-0.209 0.809-0.382 1.164l0.012-0.027c-0.141 0.296-0.357 0.537-0.624 0.705l-0.007 0.004q-0.396 0.245-1.038 0.245c-0.003 0-0.007 0-0.010 0-0.272 0-0.534-0.042-0.78-0.119l0.018 0.005v-1.325q0.136 0.046 0.271 0.078 0.135 0.026 0.297 0.026c0.005 0 0.011 0 0.017 0 0.128 0 0.243-0.052 0.327-0.136l0-0q0.14-0.14 0.25-0.475 0.11-0.339 0.219-0.933 0.047-0.261 0.125-0.735 0.078-0.48 0.177-1.121 0.1-0.647 0.203-1.408 0.11-0.762 0.209-1.585h4.814v7.625zM71.797 8.483q1.173 0 1.799 0.511c0.626 0.511 0.626 0.859 0.626 1.554v3.885h-1.111l-0.308-0.793h-0.042q-0.25 0.313-0.511 0.511c-0.261 0.198-0.374 0.229-0.6 0.292-0.228 0.060-0.49 0.095-0.76 0.095-0.022 0-0.045-0-0.067-0.001l0.003 0q-0.517 0-0.928-0.198c-0.273-0.134-0.492-0.342-0.637-0.598l-0.004-0.007q-0.234-0.412-0.235-1.043 0-0.928 0.652-1.366 0.653-0.444 1.956-0.49l1.012-0.031v-0.256q0-0.459-0.24-0.673c-0.24-0.214-0.382-0.214-0.668-0.214q-0.423 0-0.829 0.12c-0.406 0.12-0.542 0.181-0.814 0.303l-0.527-1.074c0.298-0.159 0.644-0.291 1.007-0.38l0.031-0.006c0.354-0.090 0.761-0.141 1.179-0.141 0.005 0 0.010 0 0.016 0h-0.001zM72.642 11.732l-0.615 0.021q-0.772 0.021-1.074 0.276c-0.183 0.155-0.298 0.385-0.298 0.641 0 0.011 0 0.022 0.001 0.033l-0-0.002q0 0.365 0.214 0.521 0.214 0.151 0.558 0.151 0.512 0 0.86-0.303 0.355-0.303 0.355-0.861v-0.48zM66.831 8.603h1.752l-2.31 2.795 2.514 3.035h-1.805l-2.383-2.957v2.957h-1.591v-5.831h1.591v2.832zM57.742 8.603v2.243h2.222v-2.243h1.591v5.831h-1.591v-2.404h-2.222v2.404h-1.591v-5.831zM50.205 8.603v2.305q0 0.177-0.016 0.449-0.010 0.266-0.031 0.542c-0.021 0.276-0.028 0.349-0.042 0.495q-0.020 0.219-0.031 0.297l2.691-4.089h1.914v5.831h-1.538v-2.326q0-0.287 0.021-0.631 0.021-0.35 0.047-0.657c0.026-0.307 0.030-0.36 0.037-0.464l-2.681 4.078h-1.909v-5.831zM47.791 9.797h-1.909v4.636h-1.591v-4.636h-1.914v-1.194h5.413v1.194zM39.112 8.483q1.173 0 1.799 0.511c0.626 0.511 0.626 0.859 0.626 1.554v3.885h-1.111l-0.308-0.793h-0.042q-0.25 0.313-0.511 0.511c-0.261 0.198-0.374 0.229-0.6 0.292-0.228 0.060-0.49 0.095-0.76 0.095-0.022 0-0.045-0-0.067-0.001l0.003 0q-0.517 0-0.928-0.198c-0.272-0.136-0.491-0.343-0.638-0.598l-0.004-0.007q-0.234-0.412-0.235-1.043 0-0.928 0.652-1.366 0.653-0.444 1.956-0.49l1.012-0.031v-0.256q0-0.459-0.24-0.673c-0.24-0.214-0.383-0.214-0.668-0.214q-0.423 0-0.829 0.12c-0.406 0.12-0.542 0.181-0.813 0.303l-0.527-1.074c0.298-0.159 0.644-0.291 1.007-0.38l0.031-0.006c0.354-0.090 0.761-0.141 1.179-0.141 0.005 0 0.010 0 0.016 0h-0.001zM39.957 11.732l-0.615 0.021q-0.772 0.021-1.074 0.276c-0.183 0.155-0.298 0.385-0.298 0.641 0 0.011 0 0.022 0.001 0.033l-0-0.002q0 0.365 0.214 0.521 0.214 0.151 0.558 0.151 0.512 0 0.861-0.303 0.354-0.303 0.355-0.861v-0.48zM36.103 14.434h-1.846l-1.773-2.884-1.773 2.884h-1.731l2.529-3.932-2.368-3.692h1.784l1.643 2.743 1.611-2.743h1.742l-2.394 3.781z"></path>
</symbol>
<symbol id="icon-arrow_back" viewBox="0 0 32 32">
<path stroke-linejoin="miter" stroke-linecap="butt" stroke-miterlimit="4" stroke-width="1.333" d="M16.010 6.249c0.114 0 0.212 0.035 0.322 0.145 0.089 0.082 0.145 0.2 0.145 0.331 0 0 0 0.001 0 0.001v-0c0 0.001 0 0.001 0 0.002 0 0.128-0.056 0.243-0.145 0.322l-0 0-8.482 8.482h17.88c0.008-0.001 0.018-0.001 0.027-0.001 0.249 0 0.45 0.201 0.45 0.45 0 0.007-0 0.014-0 0.021l0-0.001c0 0.16-0.046 0.255-0.129 0.337s-0.197 0.133-0.323 0.133c-0.009 0-0.017-0-0.026-0.001l0.001 0h-17.88l8.474 8.473c0.11 0.11 0.147 0.212 0.148 0.335v0.001c0 0.004 0 0.009 0 0.014 0 0.087-0.028 0.168-0.075 0.233l0.001-0.001-0.069 0.082c-0.077 0.087-0.19 0.142-0.315 0.142-0.003 0-0.006-0-0.009-0h0c-0 0-0 0-0 0-0.135 0-0.256-0.058-0.34-0.151l-0-0-9.264-9.264c-0.051-0.046-0.091-0.101-0.12-0.164l-0.001-0.003v-0.001q-0.030-0.071-0.031-0.165c-0.001-0.094 0.012-0.116 0.031-0.163v-0.001c0.032-0.065 0.072-0.12 0.121-0.167l9.267-9.267c0.085-0.093 0.207-0.151 0.342-0.152h0z"></path>
</symbol>
<symbol id="icon-arrow_forward" viewBox="0 0 32 32">
<path stroke-linejoin="miter" stroke-linecap="butt" stroke-miterlimit="4" stroke-width="1.333" d="M15.993 6.253c0.002-0 0.005-0 0.008-0 0.094 0 0.182 0.030 0.253 0.082l-0.001-0.001 0.082 0.070 9.264 9.264c0.051 0.046 0.091 0.101 0.12 0.164l0.001 0.003v0.001q0.030 0.071 0.031 0.165c0.001 0.094-0.012 0.116-0.031 0.163v0.001c-0.032 0.065-0.072 0.12-0.121 0.167l-9.272 9.264c-0.122 0.12-0.227 0.155-0.337 0.155-0.108 0-0.204-0.033-0.315-0.147l-0.007-0.007-0.069-0.081c-0.056-0.079-0.075-0.157-0.075-0.243s0.020-0.163 0.075-0.242l0.069-0.081 8.482-8.482h-17.88c-0.163 0-0.259-0.047-0.34-0.128h-0.001c-0.080-0.080-0.129-0.19-0.129-0.311 0-0.010 0-0.021 0.001-0.031l-0 0.001c0-0.162 0.046-0.26 0.128-0.341h0.001c0.081-0.081 0.177-0.127 0.34-0.128h17.88l-8.474-8.474c-0.069-0.064-0.119-0.148-0.14-0.243l-0.001-0.003-0.008-0.090c-0-0.004-0-0.008-0-0.012 0-0.125 0.054-0.237 0.141-0.314l0-0 0.001-0.001c0.077-0.087 0.19-0.142 0.315-0.142 0.003 0 0.006 0 0.010 0h-0z"></path>
</symbol>
<symbol id="icon-close" viewBox="0 0 32 32">
<path stroke-linejoin="miter" stroke-linecap="butt" stroke-miterlimit="4" stroke-width="1.333" d="M23.466 7.9c0.219 0 0.355 0.065 0.462 0.172s0.172 0.242 0.172 0.461-0.065 0.355-0.172 0.462l-7.005 7.005 7.005 7.004c0.107 0.107 0.172 0.243 0.172 0.462s-0.065 0.355-0.172 0.462-0.243 0.172-0.462 0.172-0.355-0.065-0.462-0.172l-7.004-7.005-7.005 7.005c-0.107 0.107-0.243 0.172-0.462 0.172s-0.354-0.065-0.461-0.172-0.172-0.243-0.172-0.462 0.065-0.355 0.172-0.462l7.004-7.004-7.004-7.005c-0.107-0.107-0.172-0.243-0.172-0.462s0.065-0.354 0.172-0.461 0.242-0.172 0.461-0.172 0.355 0.065 0.462 0.172l7.005 7.004 7.004-7.004c0.107-0.107 0.243-0.172 0.462-0.172z"></path>
</symbol>
<symbol id="icon-facebook" viewBox="0 0 32 32">
<path d="M29.333 16.405c0-7.409-5.969-13.415-13.333-13.415s-13.333 6.006-13.333 13.415c0 6.696 4.876 12.245 11.25 13.252v-9.374h-3.385v-3.878h3.385v-2.955c0-3.362 1.991-5.219 5.036-5.219 1.459 0 2.985 0.262 2.985 0.262v3.301h-1.681c-1.656 0-2.173 1.034-2.173 2.095v2.516h3.698l-0.591 3.878h-3.107v9.374c6.374-1.006 11.25-6.556 11.25-13.252z"></path>
</symbol>
<symbol id="icon-instagram" viewBox="0 0 32 32">
<path d="M15.998 6.161c3.206 0 3.585 0.014 4.846 0.071 1.172 0.052 1.804 0.248 2.226 0.412 0.558 0.216 0.961 0.478 1.378 0.895 0.422 0.422 0.679 0.82 0.9 1.378 0.164 0.422 0.361 1.059 0.412 2.226 0.056 1.266 0.071 1.645 0.071 4.847s-0.014 3.585-0.071 4.847c-0.052 1.172-0.248 1.804-0.412 2.227-0.202 0.54-0.507 1-0.894 1.376l-0.001 0.001c-0.422 0.422-0.82 0.679-1.378 0.9-0.422 0.164-1.060 0.361-2.226 0.412-1.266 0.056-1.645 0.071-4.847 0.071s-3.585-0.014-4.847-0.071c-1.172-0.052-1.804-0.248-2.226-0.412-0.54-0.202-1.001-0.507-1.377-0.894l-0.001-0.001c-0.387-0.379-0.693-0.838-0.891-1.352l-0.009-0.026c-0.164-0.422-0.361-1.060-0.412-2.226-0.056-1.266-0.071-1.645-0.071-4.847s0.014-3.585 0.071-4.847c0.052-1.172 0.248-1.804 0.412-2.226 0.216-0.558 0.478-0.961 0.895-1.378 0.422-0.422 0.82-0.679 1.378-0.9 0.422-0.164 1.059-0.361 2.226-0.412 1.261-0.056 1.641-0.071 4.847-0.071zM15.998 4.001c-3.258 0-3.665 0.014-4.945 0.071-1.275 0.056-2.151 0.262-2.91 0.558-0.833 0.318-1.543 0.79-2.126 1.386l-0.001 0.001c-0.595 0.584-1.067 1.292-1.373 2.083l-0.014 0.040c-0.295 0.764-0.502 1.636-0.558 2.91-0.056 1.285-0.071 1.692-0.071 4.949s0.014 3.665 0.071 4.945c0.056 1.275 0.262 2.151 0.558 2.91 0.319 0.832 0.791 1.542 1.386 2.126l0.001 0.001c0.584 0.594 1.292 1.064 2.083 1.369l0.040 0.014c0.764 0.295 1.636 0.502 2.91 0.558 1.279 0.056 1.687 0.071 4.945 0.071s3.666-0.014 4.945-0.071c1.275-0.056 2.151-0.262 2.91-0.558 0.787-0.305 1.458-0.717 2.123-1.383s1.078-1.336 1.383-2.123c0.295-0.764 0.502-1.635 0.558-2.91 0.056-1.279 0.071-1.687 0.071-4.945s-0.014-3.665-0.071-4.945c-0.056-1.275-0.262-2.151-0.558-2.91-0.305-0.837-0.773-1.551-1.372-2.132l-0.001-0.001c-0.584-0.594-1.292-1.064-2.083-1.369l-0.040-0.014c-0.764-0.295-1.635-0.502-2.91-0.558-1.284-0.061-1.692-0.075-4.949-0.075l-0.001 0.001z"></path>
<path d="M15.997 9.836c-0 0-0.001 0-0.001 0-3.404 0-6.164 2.76-6.164 6.164s2.76 6.164 6.164 6.164c3.404 0 6.164-2.76 6.164-6.164 0-0 0-0.001 0-0.001v0c-0.001-3.403-2.759-6.162-6.163-6.163h-0zM15.997 19.997c-2.208 0-3.998-1.79-3.998-3.998s1.79-3.998 3.998-3.998v0c2.208 0 3.998 1.79 3.998 3.998s-1.79 3.998-3.998 3.998v0zM23.842 9.592c0 0.011 0 0.025 0 0.038 0 0.795-0.644 1.439-1.439 1.439s-1.439-0.644-1.439-1.439c0-0.013 0-0.027 0.001-0.040l-0 0.002c0.021-0.778 0.657-1.401 1.439-1.401s1.417 0.623 1.438 1.399l0 0.002z"></path>
</symbol>
<symbol id="icon-menu" viewBox="0 0 32 32">
<path d="M4.936 24.295q-0.481 0-0.808-0.329c-0.327-0.329-0.327-0.493-0.327-0.82q0-0.483 0.327-0.807c0.327-0.324 0.488-0.323 0.808-0.323h22.127q0.481 0 0.812 0.329c0.331 0.329 0.331 0.49 0.331 0.812q0 0.492-0.331 0.814c-0.331 0.322-0.492 0.323-0.812 0.323zM4.936 17.136q-0.481 0-0.808-0.329c-0.327-0.329-0.327-0.49-0.327-0.812q0-0.483 0.327-0.806c0.327-0.323 0.488-0.323 0.808-0.323h22.127q0.481 0 0.812 0.329c0.331 0.329 0.331 0.49 0.331 0.812q0 0.483-0.331 0.806c-0.331 0.323-0.492 0.323-0.812 0.323zM4.936 9.984q-0.481 0-0.808-0.329c-0.327-0.329-0.327-0.493-0.327-0.82q0-0.483 0.327-0.806c0.327-0.323 0.488-0.323 0.808-0.323h22.127q0.481 0 0.812 0.329c0.331 0.329 0.331 0.49 0.331 0.812q0 0.492-0.331 0.815c-0.331 0.323-0.492 0.323-0.812 0.323z"></path>
</symbol>
<symbol id="icon-star-filled" viewBox="0 0 32 32">
<path d="M14.761 4.816c0.458-1.089 2.019-1.089 2.478 0l2.705 6.425c0.193 0.459 0.63 0.772 1.132 0.812l7.021 0.556c1.19 0.094 1.672 1.561 0.766 2.328l-5.349 4.527c-0.287 0.244-0.468 0.605-0.468 1.008 0 0.109 0.013 0.214 0.038 0.315l-0.002-0.009 1.634 6.769c0.277 1.147-0.986 2.053-2.004 1.439l-6.011-3.627c-0.2-0.122-0.441-0.194-0.7-0.194s-0.5 0.072-0.706 0.197l0.006-0.003-6.011 3.627c-1.018 0.615-2.281-0.292-2.004-1.439l1.634-6.769c0.023-0.092 0.036-0.197 0.036-0.306 0-0.403-0.181-0.764-0.466-1.007l-0.002-0.002-5.35-4.527c-0.906-0.767-0.424-2.234 0.766-2.328l7.021-0.556c0.502-0.040 0.938-0.353 1.132-0.812l2.705-6.425z"></path>
</symbol>
<symbol id="icon-star-half" viewBox="0 0 32 32">
<path stroke-linejoin="miter" stroke-linecap="butt" stroke-miterlimit="4" stroke-width="1.333" d="M15.375 5.076c0.229-0.545 1.021-0.545 1.25 0l2.704 6.424c0.293 0.679 0.931 1.158 1.687 1.219l0.007 0 7.021 0.556c0.61 0.048 0.828 0.78 0.388 1.154l-5.35 4.527c-0.432 0.367-0.704 0.911-0.704 1.519 0 0.164 0.020 0.323 0.057 0.475l-0.003-0.014 1.635 6.768c0.133 0.549-0.482 1.031-1.013 0.711h-0.001l-6.009-3.626c-0.298-0.182-0.659-0.289-1.044-0.289s-0.746 0.108-1.053 0.294l0.009-0.005-6.010 3.626c-0.531 0.32-1.146-0.162-1.013-0.711l1.635-6.768c0.034-0.139 0.054-0.298 0.054-0.461 0-0.608-0.272-1.151-0.701-1.516l-0.003-0.002-5.35-4.527c-0.141-0.121-0.23-0.3-0.23-0.499 0-0.349 0.273-0.634 0.616-0.655l0.002-0 7.021-0.556c0.763-0.061 1.401-0.54 1.689-1.206l0.005-0.013 2.704-6.424z"></path>
</symbol>
<symbol id="icon-star-outline" viewBox="0 0 32 32">
<path stroke-linejoin="miter" stroke-linecap="butt" stroke-miterlimit="4" stroke-width="2.667" d="M16.010 5.335l2.704 6.424c0.389 0.905 1.239 1.543 2.246 1.623l0.009 0.001 7.011 0.555-5.329 4.509c-0.576 0.489-0.94 1.214-0.94 2.024 0 0.221 0.027 0.435 0.078 0.64l-0.004-0.018 1.63 6.754-0.005 0.004-0.010-0.005-6.012-3.628c-0.396-0.242-0.875-0.386-1.388-0.386s-0.992 0.143-1.4 0.392l0.012-0.007-6.022 3.633-0.007-0.004 1.631-6.754c0.047-0.186 0.074-0.4 0.074-0.62 0-0.744-0.307-1.417-0.801-1.898l-0.001-0.001-0.138-0.126-5.331-4.509 7.012-0.555c1.016-0.081 1.866-0.719 2.248-1.607l0.007-0.017 2.703-6.424 0.012-0.001 0.010 0.001z"></path>
</symbol>
</defs>
</svg>
